<?xml version="1.0" standalone="yes"?>
<svg xmlns="http://www.w3.org/2000/svg" width="450" height="450">
<path style="fill:#fefefd; stroke:none;" d="M0 0L0 450L450 450L450 0L0 0z"/>
<path style="fill:#91c442; stroke:none;" d="M225 66L225 67L228 67L225 66z"/>
<path style="fill:#9d401f; stroke:none;" d="M226 66L222 72L229 69L226 66z"/>
<path style="fill:#de272e; stroke:none;" d="M201 282C196.717 271.874 189.363 264.152 186.478 253C176.23 213.382 189.943 169.62 204.935 133C209.772 121.185 216.101 96.1671 228 90C231.976 101.634 239.005 112.217 243.049 124C260.188 173.931 273.614 225.582 252 276C263.27 272.49 266.105 250.786 268.671 241.015C279.37 200.262 263.542 152.239 250.594 114C246.547 102.048 241.659 89.7538 234.907 79C233.404 76.605 230.166 69.2068 226.886 69.2068C222.818 69.2068 219.268 76.9893 217.64 80C211.089 92.1171 205.109 104.347 199.67 117C183.356 154.947 171.806 196.564 177.83 238C179.921 252.38 186.769 275.065 201 282z"/>
<path style="fill:#91c442; stroke:none;" d="M223 69L224 70L223 69M229 69L230 70L229 69z"/>
<path style="fill:#9d401f; stroke:none;" d="M230 71L234 77L230 71z"/>
<path style="fill:#91c442; stroke:none;" d="M231 72L232 73L231 72z"/>
<path style="fill:#9d401f; stroke:none;" d="M221 73L220 76L221 73z"/>
<path style="fill:#91c442; stroke:none;" d="M220 74L221 75L220 74M233 75L234 76L233 75z"/>
<path style="fill:#9d401f; stroke:none;" d="M219 76L220 77L219 76z"/>
<path style="fill:#91c442; stroke:none;" d="M218 77L219 78L218 77M234 77L235 78L234 77z"/>
<path style="fill:#9d401f; stroke:none;" d="M218 78L219 79L218 78M234 78L235 79L234 78M217 79L218 80L217 79z"/>
<path style="fill:#91c442; stroke:none;" d="M235 79L236 80L235 79z"/>
<path style="fill:#9d401f; stroke:none;" d="M216.333 81.6667L216.667 82.3333L216.333 81.6667M236 81L237 82L236 81z"/>
<path style="fill:#91c442; stroke:none;" d="M237 82L238 83L237 82z"/>
<path style="fill:#9d401f; stroke:none;" d="M215 83L211 92L212 92L215 83M237 83L238 84L237 83z"/>
<path style="fill:#91c442; stroke:none;" d="M214 84L215 85L214 84M238 84L239 85L238 84z"/>
<path style="fill:#9d401f; stroke:none;" d="M238 85L240 88L238 85z"/>
<path style="fill:#91c442; stroke:none;" d="M213 86L214 87L213 86M239 86L240 87L239 86M240 88L241 89L240 88z"/>
<path style="fill:#9d401f; stroke:none;" d="M240 89L241 90L240 89z"/>
<path style="fill:#91c442; stroke:none;" d="M225 90L226 91L225 90z"/>
<path style="fill:#fefefd; stroke:none;" d="M226 90C202.334 128.668 184 179.362 184 225C184 240.357 185.572 265.661 198.681 276.397C202.172 279.256 208.783 278 213 278C224.588 278 237.693 276.308 249 279C276.459 237.329 260.867 175.313 245.053 132C240.278 118.921 236.104 99.9976 226 90z"/>
<path style="fill:#9d401f; stroke:none;" d="M227 90L228 91L227 90z"/>
<path style="fill:#91c442; stroke:none;" d="M241 90L242 91L241 90z"/>
<path style="fill:#9d401f; stroke:none;" d="M224 91L225 92L224 91M241 91L242 92L241 91M210.333 92.6667L210.667 93.3333L210.333 92.6667z"/>
<path style="fill:#91c442; stroke:none;" d="M224 92L225 93L224 92M228 92L229 93L228 92z"/>
<path style="fill:#9d401f; stroke:none;" d="M223 93L224 94L223 93M229 93L230 94L229 93M242 93L244 96L242 93M209.333 94.6667L209.667 95.3333L209.333 94.6667z"/>
<path style="fill:#91c442; stroke:none;" d="M223 94L224 95L223 94M229 94L230 95L229 94M243 94L244 95L243 94z"/>
<path style="fill:#9d401f; stroke:none;" d="M222 95L223 96L222 95M208 96L209 97L208 96M221.333 96.6667L221.667 97.3333L221.333 96.6667z"/>
<path style="fill:#91c442; stroke:none;" d="M230 96L231 97L230 96z"/>
<path style="fill:#9d401f; stroke:none;" d="M231 97L232 98L231 97M244.333 97.6667L244.667 98.3333L244.333 97.6667M207.333 98.6667L207.667 99.3333L207.333 98.6667M220.333 98.6667L220.667 99.3333L220.333 98.6667z"/>
<path style="fill:#91c442; stroke:none;" d="M231 98L232 99L231 98z"/>
<path style="fill:#9d401f; stroke:none;" d="M232 99L234 105L235 105L232 99z"/>
<path style="fill:#91c442; stroke:none;" d="M245 99L246 100L245 99z"/>
<path style="fill:#9d401f; stroke:none;" d="M206.333 100.667L206.667 101.333L206.333 100.667M219.333 100.667L219.667 101.333L219.333 100.667z"/>
<path style="fill:#91c442; stroke:none;" d="M232 100L233 101L232 100z"/>
<path style="fill:#9d401f; stroke:none;" d="M245 100L246 101L245 100z"/>
<path style="fill:#91c442; stroke:none;" d="M246 101L247 102L246 101z"/>
<path style="fill:#9d401f; stroke:none;" d="M205.333 102.667L205.667 103.333L205.333 102.667M218.333 102.667L218.667 103.333L218.333 102.667z"/>
<path style="fill:#91c442; stroke:none;" d="M233 102L234 103L233 102z"/>
<path style="fill:#9d401f; stroke:none;" d="M204.333 104.667L204.667 105.333L204.333 104.667M217 104L218 105L217 104M247 104L248 105L247 104z"/>
<path style="fill:#91c442; stroke:none;" d="M217 105L218 106L217 105M203 106L204 107L203 106z"/>
<path style="fill:#9d401f; stroke:none;" d="M216.333 106.667L216.667 107.333L216.333 106.667M235 106L237 112L238 112L235 106z"/>
<path style="fill:#91c442; stroke:none;" d="M248 106L249 107L248 106z"/>
<path style="fill:#9d401f; stroke:none;" d="M203 107L204 108L203 107z"/>
<path style="fill:#91c442; stroke:none;" d="M235 107L236 108L235 107z"/>
<path style="fill:#9d401f; stroke:none;" d="M248 107L249 108L248 107z"/>
<path style="fill:#91c442; stroke:none;" d="M202 108L203 109L202 108z"/>
<path style="fill:#9d401f; stroke:none;" d="M215.333 108.667L215.667 109.333L215.333 108.667z"/>
<path style="fill:#91c442; stroke:none;" d="M249 108L250 109L249 108z"/>
<path style="fill:#9d401f; stroke:none;" d="M202.333 109.667L202.667 110.333L202.333 109.667z"/>
<path style="fill:#91c442; stroke:none;" d="M236 109L237 110L236 109z"/>
<path style="fill:#9d401f; stroke:none;" d="M249 109L250 110L249 109M214.333 110.667L214.667 111.333L214.333 110.667M201 111L202 112L201 111z"/>
<path style="fill:#91c442; stroke:none;" d="M250 111L251 112L250 111z"/>
<path style="fill:#9d401f; stroke:none;" d="M238 112L239 117L240 117L238 112M250 112L252 119L253 119L250 112M200 113L198 120L199 120L200 113M213 113L214 114L213 113z"/>
<path style="fill:#91c442; stroke:none;" d="M251 113L252 114L251 113M213 114L214 115L213 114M238 114L239 115L238 114M199 115L200 116L199 115z"/>
<path style="fill:#9d401f; stroke:none;" d="M212 115L213 116L212 115z"/>
<path style="fill:#91c442; stroke:none;" d="M212 116L213 117L212 116M252 116L253 117L252 116M198 117L199 118L198 117z"/>
<path style="fill:#9d401f; stroke:none;" d="M211 117L212 118L211 117M240.333 117.667L240.667 118.333L240.333 117.667z"/>
<path style="fill:#91c442; stroke:none;" d="M211 118L212 119L211 118z"/>
<path style="fill:#9d401f; stroke:none;" d="M210 119L211 120L210 119z"/>
<path style="fill:#91c442; stroke:none;" d="M240 119L241 120L240 119M253 119L254 120L253 119z"/>
<path style="fill:#9d401f; stroke:none;" d="M197.333 120.667L197.667 121.333L197.333 120.667z"/>
<path style="fill:#91c442; stroke:none;" d="M210 120L211 121L210 120z"/>
<path style="fill:#9d401f; stroke:none;" d="M241.333 120.667L241.667 121.333L241.333 120.667M253 120L254 121L253 120M209 121L207 128L208 128L209 121z"/>
<path style="fill:#91c442; stroke:none;" d="M196 122L197 123L196 122z"/>
<path style="fill:#9d401f; stroke:none;" d="M242 122L243 127L244 127L242 122M254.333 122.667L254.667 123.333L254.333 122.667M196.333 123.667L196.667 124.333L196.333 123.667z"/>
<path style="fill:#91c442; stroke:none;" d="M209 123L210 124L209 123M242 124L243 125L242 124z"/>
<path style="fill:#9d401f; stroke:none;" d="M195 125L195 128L196 128L195 125z"/>
<path style="fill:#91c442; stroke:none;" d="M208 125L209 126L208 125M255 125L256 126L255 125M93.6667 126.333L94.3333 126.667L93.6667 126.333z"/>
<path style="fill:#9d401f; stroke:none;" d="M255.333 126.667L255.667 127.333L255.333 126.667z"/>
<path style="fill:#91c442; stroke:none;" d="M357 126L358 127L357 126z"/>
<path style="fill:#9d401f; stroke:none;" d="M93 127L93 128L98 129L93 127z"/>
<path style="fill:#91c442; stroke:none;" d="M194 127L195 128L194 127M243 127L244 128L243 127M355 127L356 128L355 127z"/>
<path style="fill:#9d401f; stroke:none;" d="M356 127L357 132L358 132L356 127z"/>
<path style="fill:#91c442; stroke:none;" d="M93 128L93 132L94 132L93 128z"/>
<path style="fill:#de272e; stroke:none;" d="M95 128C90.3524 144.904 101.624 169.833 108.414 185C110.791 190.31 113.185 198.59 118 202L108 147C127.974 154.67 146.048 173.624 167 178C148.993 156.372 121.498 137.614 95 128z"/>
<path style="fill:#91c442; stroke:none;" d="M98 128L99 129L98 128z"/>
<path style="fill:#9d401f; stroke:none;" d="M206.333 128.667L206.667 129.333L206.333 128.667z"/>
<path style="fill:#91c442; stroke:none;" d="M256 128L257 129L256 128M352 128L353 129L352 128z"/>
<path style="fill:#de272e; stroke:none;" d="M281 182C296.816 174.134 311.261 163.485 327 155.359C329.904 153.859 339.792 146.27 342.412 149.542C345.183 153.003 341.741 161.214 340.706 165C337.873 175.359 332.862 190.37 334 201C345.541 187.98 352.828 164.057 354.946 147C355.387 143.447 358.978 131.551 355.485 129.157C352.167 126.883 338.21 136.288 335 138.141C317.023 148.52 290.879 162.935 281 182z"/>
<path style="fill:#9d401f; stroke:none;" d="M99 129L102 131L102 130L99 129z"/>
<path style="fill:#91c442; stroke:none;" d="M100 129L101 130L100 129z"/>
<path style="fill:#9d401f; stroke:none;" d="M351.667 129.333L352.333 129.667L351.667 129.333z"/>
<path style="fill:#91c442; stroke:none;" d="M102 130L103 131L102 130M193 130L194 131L193 130M206 130L207 131L206 130M244 130L245 131L244 130M348 130L349 131L348 130z"/>
<path style="fill:#9d401f; stroke:none;" d="M349 130L350 131L349 130M103.667 131.333L104.333 131.667L103.667 131.333M193.333 131.667L193.667 132.333L193.333 131.667z"/>
<path style="fill:#91c442; stroke:none;" d="M257 131L258 132L257 131M346 131L347 132L346 131z"/>
<path style="fill:#9d401f; stroke:none;" d="M347 131L348 132L347 131M105.667 132.333L106.333 132.667L105.667 132.333z"/>
<path style="fill:#91c442; stroke:none;" d="M205 132L206 133L205 132z"/>
<path style="fill:#9d401f; stroke:none;" d="M245 132L246 133L245 132M257 132L258 137L259 137L257 132z"/>
<path style="fill:#91c442; stroke:none;" d="M344 132L345 133L344 132z"/>
<path style="fill:#9d401f; stroke:none;" d="M345.667 132.333L346.333 132.667L345.667 132.333z"/>
<path style="fill:#91c442; stroke:none;" d="M357 132L357 135L358 135L357 132z"/>
<path style="fill:#9d401f; stroke:none;" d="M107.667 133.333L108.333 133.667L107.667 133.333M192 133L193 134L192 133M204.333 133.667L204.667 134.333L204.333 133.667z"/>
<path style="fill:#91c442; stroke:none;" d="M245 133L246 134L245 133M342 133L343 134L342 133z"/>
<path style="fill:#9d401f; stroke:none;" d="M343.667 133.333L344.333 133.667L343.667 133.333M94 134L94 140L95 140L94 134M109.667 134.333L110.333 134.667L109.667 134.333z"/>
<path style="fill:#91c442; stroke:none;" d="M258 134L259 135L258 134M340 134L341 135L340 134z"/>
<path style="fill:#9d401f; stroke:none;" d="M341 134L342 135L341 134M111 135L112 136L111 135z"/>
<path style="fill:#91c442; stroke:none;" d="M112 135L113 136L112 135M204 135L205 136L204 135z"/>
<path style="fill:#9d401f; stroke:none;" d="M246 135L247 136L246 135z"/>
<path style="fill:#91c442; stroke:none;" d="M338 135L339 136L338 135z"/>
<path style="fill:#9d401f; stroke:none;" d="M339 135L340 136L339 135M356 135L356 141L357 141L356 135M113 136L116 138L116 137L113 136z"/>
<path style="fill:#91c442; stroke:none;" d="M114 136L115 137L114 136z"/>
<path style="fill:#9d401f; stroke:none;" d="M191.333 136.667L191.667 137.333L191.333 136.667M203.333 136.667L203.667 137.333L203.333 136.667z"/>
<path style="fill:#91c442; stroke:none;" d="M336 136L337 137L336 136z"/>
<path style="fill:#9d401f; stroke:none;" d="M337.667 136.333L338.333 136.667L337.667 136.333M247.333 137.667L247.667 138.333L247.333 137.667z"/>
<path style="fill:#91c442; stroke:none;" d="M259 137L260 138L259 137M334 137L335 138L334 137z"/>
<path style="fill:#9d401f; stroke:none;" d="M335 137L336 138L335 137M117 138L118 139L117 138z"/>
<path style="fill:#91c442; stroke:none;" d="M190 138L191 139L190 138z"/>
<path style="fill:#9d401f; stroke:none;" d="M202 138L201 143L202 143L202 138M259 138L260 139L259 138M333.667 138.333L334.333 138.667L333.667 138.333M118.667 139.333L119.333 139.667L118.667 139.333M190 139L191 140L190 139M248 139L248 142L249 142L248 139z"/>
<path style="fill:#91c442; stroke:none;" d="M331 139L332 140L331 139z"/>
<path style="fill:#9d401f; stroke:none;" d="M332 139L333 140L332 139z"/>
<path style="fill:#91c442; stroke:none;" d="M94.3333 140.667L94.6667 141.333L94.3333 140.667z"/>
<path style="fill:#9d401f; stroke:none;" d="M120 140L123 142L123 141L120 140z"/>
<path style="fill:#91c442; stroke:none;" d="M121 140L122 141L121 140M202 140L203 141L202 140M329 140L330 141L329 140z"/>
<path style="fill:#9d401f; stroke:none;" d="M330.667 140.333L331.333 140.667L330.667 140.333z"/>
<path style="fill:#91c442; stroke:none;" d="M123 141L124 142L123 141M189 141L190 142L189 141M260 141L261 142L260 141M327 141L328 142L327 141z"/>
<path style="fill:#9d401f; stroke:none;" d="M328.667 141.333L329.333 141.667L328.667 141.333z"/>
<path style="fill:#91c442; stroke:none;" d="M356.333 141.667L356.667 142.333L356.333 141.667z"/>
<path style="fill:#9d401f; stroke:none;" d="M124 142L125 143L124 142M189.333 142.667L189.667 143.333L189.333 142.667z"/>
<path style="fill:#91c442; stroke:none;" d="M248 142L249 143L248 142z"/>
<path style="fill:#9d401f; stroke:none;" d="M260.333 142.667L260.667 143.333L260.333 142.667z"/>
<path style="fill:#91c442; stroke:none;" d="M326 142L327 143L326 142z"/>
<path style="fill:#9d401f; stroke:none;" d="M355 142L355 147L356 147L355 142M95 143L95 146L96 146L95 143M125 143L126 144L125 143z"/>
<path style="fill:#91c442; stroke:none;" d="M126 143L127 144L126 143M201 143L202 144L201 143M324 143L325 144L324 143z"/>
<path style="fill:#9d401f; stroke:none;" d="M325 143L326 144L325 143z"/>
<path style="fill:#91c442; stroke:none;" d="M188 144L189 145L188 144z"/>
<path style="fill:#9d401f; stroke:none;" d="M200 144L201 145L200 144M249 144L250 145L249 144M322 146L325 144L322 146M128 145L131 147L131 146L128 145z"/>
<path style="fill:#91c442; stroke:none;" d="M129 145L130 146L129 145M200 145L201 146L200 145M249 145L250 146L249 145M261 145L262 146L261 145M321 145L322 146L321 145M95.3333 146.667L95.6667 147.333L95.3333 146.667z"/>
<path style="fill:#9d401f; stroke:none;" d="M250.333 146.667L250.667 147.333L250.333 146.667M261 146L261 149L262 149L261 146M320 146L321 147L320 146z"/>
<path style="fill:#91c442; stroke:none;" d="M108.333 147.667L108.667 148.333L108.333 147.667z"/>
<path style="fill:#9d401f; stroke:none;" d="M109 147L109 148L112 149L109 147M131 147L136 151L131 147z"/>
<path style="fill:#91c442; stroke:none;" d="M132 147L133 148L132 147M187 147L188 148L187 147M318 147L319 148L318 147z"/>
<path style="fill:#9d401f; stroke:none;" d="M319 147L320 148L319 147M340 147L336 151L340 147z"/>
<path style="fill:#91c442; stroke:none;" d="M355.333 147.667L355.667 148.333L355.333 147.667M110 148L111 149L110 148z"/>
<path style="fill:#9d401f; stroke:none;" d="M187 148L186 153L187 153L187 148z"/>
<path style="fill:#91c442; stroke:none;" d="M199 148L200 149L199 148M250 148L251 149L250 148z"/>
<path style="fill:#9d401f; stroke:none;" d="M313 151L313 152L319 149L313 151z"/>
<path style="fill:#91c442; stroke:none;" d="M341 148L342 149L341 148z"/>
<path style="fill:#9d401f; stroke:none;" d="M96.3333 149.667L96.6667 150.333L96.3333 149.667z"/>
<path style="fill:#91c442; stroke:none;" d="M112 149L113 150L112 149z"/>
<path style="fill:#9d401f; stroke:none;" d="M113 149L114 150L113 149z"/>
<path style="fill:#91c442; stroke:none;" d="M135 149L136 150L135 149z"/>
<path style="fill:#9d401f; stroke:none;" d="M198 149L197 154L198 154L198 149z"/>
<path style="fill:#91c442; stroke:none;" d="M262 149L263 150L262 149M315 149L316 150L315 149M339 149L340 150L339 149M108.333 150.667L108.667 151.333L108.333 150.667M114 150L115 151L114 150M136 150L137 151L136 150M186 150L187 151L186 150z"/>
<path style="fill:#9d401f; stroke:none;" d="M251.333 150.667L251.667 151.333L251.333 150.667M262 150L262 153L263 153L262 150z"/>
<path style="fill:#91c442; stroke:none;" d="M337 150L338 151L337 150z"/>
<path style="fill:#9d401f; stroke:none;" d="M343 150L342 157L343 157L343 150M354.333 150.667L354.667 151.333L354.333 150.667z"/>
<path style="fill:#91c442; stroke:none;" d="M96 151L97 152L96 151z"/>
<path style="fill:#9d401f; stroke:none;" d="M137 151L138 152L137 151z"/>
<path style="fill:#91c442; stroke:none;" d="M198 151L199 152L198 151z"/>
<path style="fill:#9d401f; stroke:none;" d="M334 151L335 152L334 151z"/>
<path style="fill:#91c442; stroke:none;" d="M335 151L336 152L335 151z"/>
<path style="fill:#9d401f; stroke:none;" d="M108 152L109 160L110 160L108 152M118 152L119 153L118 152z"/>
<path style="fill:#91c442; stroke:none;" d="M139 152L140 153L139 152z"/>
<path style="fill:#9d401f; stroke:none;" d="M252 152L253 159L254 159L252 152z"/>
<path style="fill:#91c442; stroke:none;" d="M311 152L312 153L311 152z"/>
<path style="fill:#9d401f; stroke:none;" d="M312 152L313 153L312 152M332 152L333 153L332 152z"/>
<path style="fill:#91c442; stroke:none;" d="M333 152L334 153L333 152M342.333 152.667L342.667 153.333L342.333 152.667M354 152L355 153L354 152z"/>
<path style="fill:#9d401f; stroke:none;" d="M97.3333 153.667L97.6667 154.333L97.3333 153.667z"/>
<path style="fill:#91c442; stroke:none;" d="M119 153L120 154L119 153z"/>
<path style="fill:#9d401f; stroke:none;" d="M120 153L121 154L120 153M140 153L141 154L140 153z"/>
<path style="fill:#91c442; stroke:none;" d="M263 153L264 154L263 153z"/>
<path style="fill:#9d401f; stroke:none;" d="M310 153L311 154L310 153M331 153L332 154L331 153M353 153L353 157L354 157L353 153z"/>
<path style="fill:#91c442; stroke:none;" d="M121 154L122 155L121 154z"/>
<path style="fill:#9d401f; stroke:none;" d="M122 154L123 155L122 154M141 154L142 155L141 154M185.333 154.667L185.667 155.333L185.333 154.667M196 154L194 163L195 163L196 154M263.333 154.667L263.667 155.333L263.333 154.667M309 154L310 155L309 154M323 157L323 158L330 155L323 157z"/>
<path style="fill:#91c442; stroke:none;" d="M97.3333 155.667L97.6667 156.333L97.3333 155.667M123 155L124 156L123 155z"/>
<path style="fill:#9d401f; stroke:none;" d="M124 155L125 156L124 155M142 155L145 157L145 156L142 155z"/>
<path style="fill:#91c442; stroke:none;" d="M143 155L144 156L143 155M252 155L253 156L252 155M307 155L308 156L307 155z"/>
<path style="fill:#9d401f; stroke:none;" d="M308 155L309 156L308 155z"/>
<path style="fill:#91c442; stroke:none;" d="M328 155L329 156L328 155M109 156L110 157L109 156z"/>
<path style="fill:#9d401f; stroke:none;" d="M125 156L126 157L125 156M306 156L307 157L306 156z"/>
<path style="fill:#91c442; stroke:none;" d="M326 156L327 157L326 156z"/>
<path style="fill:#9d401f; stroke:none;" d="M127 157L128 158L127 157M145 157L150 161L150 160L145 157z"/>
<path style="fill:#91c442; stroke:none;" d="M146 157L147 158L146 157M184 157L185 158L184 157M196 157L197 158L196 157M264 157L265 158L264 157z"/>
<path style="fill:#9d401f; stroke:none;" d="M305 157L306 158L305 157z"/>
<path style="fill:#91c442; stroke:none;" d="M324 157L325 158L324 157M353 157L354 158L353 157M147 158L148 159L147 158z"/>
<path style="fill:#9d401f; stroke:none;" d="M184.333 158.667L184.667 159.333L184.333 158.667M264 158L264 161L265 161L264 158z"/>
<path style="fill:#91c442; stroke:none;" d="M303 158L302 160L303 158z"/>
<path style="fill:#9d401f; stroke:none;" d="M304 158L305 159L304 158M316 161L316 162L323 159L316 161z"/>
<path style="fill:#91c442; stroke:none;" d="M341 158L342 159L341 158z"/>
<path style="fill:#9d401f; stroke:none;" d="M98 159L99 160L98 159z"/>
<path style="fill:#91c442; stroke:none;" d="M130 159L131 160L130 159z"/>
<path style="fill:#9d401f; stroke:none;" d="M131 159L132 160L131 159z"/>
<path style="fill:#91c442; stroke:none;" d="M148 159L149 160L148 159M253 159L254 160L253 159z"/>
<path style="fill:#9d401f; stroke:none;" d="M303 159L304 160L303 159z"/>
<path style="fill:#91c442; stroke:none;" d="M321 159L322 160L321 159z"/>
<path style="fill:#9d401f; stroke:none;" d="M341 159L341 163L342 163L341 159M352 159L353 160L352 159M99 160L99 163L100 163L99 160z"/>
<path style="fill:#91c442; stroke:none;" d="M132 160L133 161L132 160z"/>
<path style="fill:#9d401f; stroke:none;" d="M133 160L134 161L133 160z"/>
<path style="fill:#91c442; stroke:none;" d="M195 160L196 161L195 160z"/>
<path style="fill:#9d401f; stroke:none;" d="M254 160L255 167L256 167L254 160M301 160L302 161L301 160z"/>
<path style="fill:#91c442; stroke:none;" d="M319 160L320 161L319 160M352 160L353 161L352 160M110.333 161.667L110.667 162.333L110.333 161.667z"/>
<path style="fill:#9d401f; stroke:none;" d="M134 161L135 162L134 161M150 161L151 162L150 161z"/>
<path style="fill:#91c442; stroke:none;" d="M183 161L184 162L183 161M265 161L266 162L265 161z"/>
<path style="fill:#9d401f; stroke:none;" d="M300 161L301 162L300 161z"/>
<path style="fill:#91c442; stroke:none;" d="M317 161L318 162L317 161z"/>
<path style="fill:#9d401f; stroke:none;" d="M136 162L136 163L141 165L141 164L136 162M151 162L152 163L151 162M183 162L183 165L184 165L183 162z"/>
<path style="fill:#91c442; stroke:none;" d="M254 162L255 163L254 162z"/>
<path style="fill:#9d401f; stroke:none;" d="M265 162L265 166L266 166L265 162M299 162L300 163L299 162M313 164L316 163L313 164z"/>
<path style="fill:#91c442; stroke:none;" d="M99 163L100 164L99 163z"/>
<path style="fill:#9d401f; stroke:none;" d="M110 163L110 166L111 166L110 163z"/>
<path style="fill:#91c442; stroke:none;" d="M137 163L138 164L137 163z"/>
<path style="fill:#9d401f; stroke:none;" d="M152 163L153 164L152 163z"/>
<path style="fill:#91c442; stroke:none;" d="M194 163L195 164L194 163z"/>
<path style="fill:#9d401f; stroke:none;" d="M298 163L299 164L298 163z"/>
<path style="fill:#91c442; stroke:none;" d="M314 163L315 164L314 163M340 163L341 164L340 163z"/>
<path style="fill:#9d401f; stroke:none;" d="M351 163L352 164L351 163M100.333 164.667L100.667 165.333L100.333 164.667z"/>
<path style="fill:#91c442; stroke:none;" d="M139 164L140 165L139 164z"/>
<path style="fill:#9d401f; stroke:none;" d="M153 164L154 165L153 164z"/>
<path style="fill:#91c442; stroke:none;" d="M154 164L155 165L154 164z"/>
<path style="fill:#9d401f; stroke:none;" d="M193.333 164.667L193.667 165.333L193.333 164.667z"/>
<path style="fill:#91c442; stroke:none;" d="M296 164L297 165L296 164z"/>
<path style="fill:#9d401f; stroke:none;" d="M297 164L298 165L297 164M311 164L312 165L311 164z"/>
<path style="fill:#91c442; stroke:none;" d="M312 164L313 165L312 164z"/>
<path style="fill:#9d401f; stroke:none;" d="M340.333 164.667L340.667 165.333L340.333 164.667M141 165L141 166L144 167L141 165z"/>
<path style="fill:#91c442; stroke:none;" d="M155 165L156 166L155 165M182 165L183 166L182 165M295 165L296 166L295 165z"/>
<path style="fill:#9d401f; stroke:none;" d="M309 165L302 169L302 170L310 166L309 165z"/>
<path style="fill:#91c442; stroke:none;" d="M310 165L311 166L310 165z"/>
<path style="fill:#9d401f; stroke:none;" d="M350.333 165.667L350.667 166.333L350.333 165.667z"/>
<path style="fill:#91c442; stroke:none;" d="M100 166L101 167L100 166M111.333 166.667L111.667 167.333L111.333 166.667M142 166L143 167L142 166M156 166L157 167L156 166z"/>
<path style="fill:#9d401f; stroke:none;" d="M182 166L183 167L182 166z"/>
<path style="fill:#91c442; stroke:none;" d="M193 166L194 167L193 166M266.333 166.667L266.667 167.333L266.333 166.667z"/>
<path style="fill:#9d401f; stroke:none;" d="M294 166L293 168L295 168L294 166z"/>
<path style="fill:#91c442; stroke:none;" d="M309 166L310 167L309 166z"/>
<path style="fill:#9d401f; stroke:none;" d="M101.333 167.667L101.667 168.333L101.333 167.667z"/>
<path style="fill:#91c442; stroke:none;" d="M144 167L145 168L144 167z"/>
<path style="fill:#9d401f; stroke:none;" d="M145 167L145 168L151 171L145 167M157 167L158 168L157 167M192 167L192 170L193 170L192 167z"/>
<path style="fill:#91c442; stroke:none;" d="M255 167L256 168L255 167M307 167L308 168L307 167z"/>
<path style="fill:#9d401f; stroke:none;" d="M111 168L112 169L111 168z"/>
<path style="fill:#91c442; stroke:none;" d="M146 168L147 169L146 168z"/>
<path style="fill:#9d401f; stroke:none;" d="M158 168L159 169L158 168z"/>
<path style="fill:#91c442; stroke:none;" d="M181.333 168.667L181.667 169.333L181.333 168.667z"/>
<path style="fill:#9d401f; stroke:none;" d="M256 168L257 176L258 176L256 168M266 168L266 171L267 171L266 168M292 168L293 169L292 168z"/>
<path style="fill:#91c442; stroke:none;" d="M305 168L306 169L305 168M339 168L340 169L339 168M101 169L102 170L101 169z"/>
<path style="fill:#9d401f; stroke:none;" d="M159 169L160 170L159 169z"/>
<path style="fill:#91c442; stroke:none;" d="M290 169L289 171L290 169z"/>
<path style="fill:#9d401f; stroke:none;" d="M291 169L292 170L291 169z"/>
<path style="fill:#91c442; stroke:none;" d="M303 169L304 170L303 169z"/>
<path style="fill:#9d401f; stroke:none;" d="M339 169L340 170L339 169M349 169L350 170L349 169M102 170L103 175L104 175L102 170z"/>
<path style="fill:#91c442; stroke:none;" d="M149 170L150 171L149 170z"/>
<path style="fill:#9d401f; stroke:none;" d="M160 170L163 173L160 170M181.333 170.667L181.667 171.333L181.333 170.667z"/>
<path style="fill:#91c442; stroke:none;" d="M192 170L193 171L192 170z"/>
<path style="fill:#9d401f; stroke:none;" d="M290 170L291 171L290 170M297 172L297 173L302 171L297 172z"/>
<path style="fill:#91c442; stroke:none;" d="M112 171L113 172L112 171M151 171L152 172L151 171z"/>
<path style="fill:#9d401f; stroke:none;" d="M152 171L153 172L152 171z"/>
<path style="fill:#91c442; stroke:none;" d="M256 171L257 172L256 171z"/>
<path style="fill:#9d401f; stroke:none;" d="M289 171L290 172L289 171z"/>
<path style="fill:#91c442; stroke:none;" d="M300 171L301 172L300 171z"/>
<path style="fill:#9d401f; stroke:none;" d="M348.333 171.667L348.667 172.333L348.333 171.667z"/>
<path style="fill:#91c442; stroke:none;" d="M102 172L103 173L102 172z"/>
<path style="fill:#9d401f; stroke:none;" d="M112 172L112 176L113 176L112 172z"/>
<path style="fill:#91c442; stroke:none;" d="M153 172L154 173L153 172z"/>
<path style="fill:#9d401f; stroke:none;" d="M154 172L155 173L154 172M191 172L192 173L191 172z"/>
<path style="fill:#91c442; stroke:none;" d="M267 172L268 173L267 172M287 172L282 178L287 172M298 172L299 173L298 172z"/>
<path style="fill:#9d401f; stroke:none;" d="M155 173L155 174L158 175L155 173M163 173L166 176L163 173z"/>
<path style="fill:#91c442; stroke:none;" d="M180 173L181 174L180 173M191 173L192 174L191 173z"/>
<path style="fill:#9d401f; stroke:none;" d="M267 173L267 176L268 176L267 173M287 173L288 174L287 173M296 173L297 174L296 173z"/>
<path style="fill:#91c442; stroke:none;" d="M338 173L339 174L338 173M156 174L157 175L156 174z"/>
<path style="fill:#9d401f; stroke:none;" d="M180.333 174.667L180.667 175.333L180.333 174.667M286 174L287 175L286 174M294 174L295 175L294 174z"/>
<path style="fill:#91c442; stroke:none;" d="M295 174L296 175L295 174z"/>
<path style="fill:#9d401f; stroke:none;" d="M104.333 175.667L104.667 176.333L104.333 175.667z"/>
<path style="fill:#91c442; stroke:none;" d="M158 175L159 176L158 175z"/>
<path style="fill:#9d401f; stroke:none;" d="M190.333 175.667L190.667 176.333L190.333 175.667M285 175L286 176L285 175z"/>
<path style="fill:#91c442; stroke:none;" d="M293 175L294 176L293 175z"/>
<path style="fill:#9d401f; stroke:none;" d="M338.333 175.667L338.667 176.333L338.333 175.667z"/>
<path style="fill:#91c442; stroke:none;" d="M347 175L348 176L347 175z"/>
<path style="fill:#9d401f; stroke:none;" d="M113 176L114 177L113 176z"/>
<path style="fill:#91c442; stroke:none;" d="M160 176L161 177L160 176z"/>
<path style="fill:#9d401f; stroke:none;" d="M161 176L164 178L161 176M166 176L167 177L166 176M284 176L285 177L284 176M285 179L285 180L292 177L285 179M346 176L344 183L345 183L346 176z"/>
<path style="fill:#91c442; stroke:none;" d="M104 177L105 178L104 177z"/>
<path style="fill:#9d401f; stroke:none;" d="M164 178L164 179L171 182L168 177L164 178z"/>
<path style="fill:#91c442; stroke:none;" d="M179.333 177.667L179.667 178.333L179.333 177.667M190 177L191 178L190 177M268.333 177.667L268.667 178.333L268.333 177.667z"/>
<path style="fill:#9d401f; stroke:none;" d="M283 177L284 178L283 177z"/>
<path style="fill:#91c442; stroke:none;" d="M290 177L291 178L290 177M337.333 177.667L337.667 178.333L337.333 177.667M168 178L169 179L168 178z"/>
<path style="fill:#9d401f; stroke:none;" d="M282 178L283 179L282 178z"/>
<path style="fill:#91c442; stroke:none;" d="M288 178L289 179L288 178z"/>
<path style="fill:#9d401f; stroke:none;" d="M105 179L106 180L105 179z"/>
<path style="fill:#91c442; stroke:none;" d="M165 179L166 180L165 179M169 179L170 180L169 179z"/>
<path style="fill:#9d401f; stroke:none;" d="M179 179L179 183L180 183L179 179M268 179L268 183L269 183L268 179M281 179L277 185L281 179z"/>
<path style="fill:#91c442; stroke:none;" d="M286 179L287 180L286 179z"/>
<path style="fill:#9d401f; stroke:none;" d="M337 179L337 182L338 182L337 179M106 180L107 184L108 184L106 180z"/>
<path style="fill:#91c442; stroke:none;" d="M114 180L115 181L114 180M167 180L168 181L167 180M170 180L171 181L170 180z"/>
<path style="fill:#9d401f; stroke:none;" d="M189 180L190 181L189 180M258 180L259 181L258 180M284 180L285 181L284 180z"/>
<path style="fill:#91c442; stroke:none;" d="M345 180L346 181L345 180z"/>
<path style="fill:#9d401f; stroke:none;" d="M114 181L114 184L115 184L114 181z"/>
<path style="fill:#91c442; stroke:none;" d="M169 181L170 182L169 181M171.333 181.667L171.667 182.333L171.333 181.667M189 181L190 182L189 181M258 181L259 182L258 181z"/>
<path style="fill:#9d401f; stroke:none;" d="M282 181L283 182L282 181z"/>
<path style="fill:#91c442; stroke:none;" d="M283 181L284 182L283 181M106 182L107 183L106 182M178.333 182.667L178.667 183.333L178.333 182.667M281 182L282 183L281 182M336 182L337 183L336 182z"/>
<path style="fill:#9d401f; stroke:none;" d="M188.333 183.667L188.667 184.333L188.333 183.667M259.333 183.667L259.667 184.333L259.333 183.667M336.333 183.667L336.667 184.333L336.333 183.667z"/>
<path style="fill:#91c442; stroke:none;" d="M107 184L108 185L107 184M115 184L116 185L115 184z"/>
<path style="fill:#9d401f; stroke:none;" d="M178 184L178 187L179 187L178 184z"/>
<path style="fill:#91c442; stroke:none;" d="M269 184L270 185L269 184M276 184L277 185L276 184z"/>
<path style="fill:#9d401f; stroke:none;" d="M343 184L344 185L343 184M108.333 185.667L108.667 186.333L108.333 185.667M115.333 185.667L115.667 186.333L115.333 185.667z"/>
<path style="fill:#91c442; stroke:none;" d="M188 185L189 186L188 185M259.333 185.667L259.667 186.333L259.333 185.667z"/>
<path style="fill:#9d401f; stroke:none;" d="M269 185L269 188L270 188L269 185M187 186L187 189L188 189L187 186z"/>
<path style="fill:#91c442; stroke:none;" d="M335 186L336 187L335 186z"/>
<path style="fill:#9d401f; stroke:none;" d="M342 186L343 187L342 186M109.333 187.667L109.667 188.333L109.333 187.667M335 187L335 191L336 191L335 187M341 188L340 191L341 191L341 188M110 189L113 197L114 197L110 189z"/>
<path style="fill:#91c442; stroke:none;" d="M116 189L117 190L116 189M177 189L178 190L177 189M187.333 189.667L187.667 190.333L187.333 189.667M341 189L342 190L341 189z"/>
<path style="fill:#9d401f; stroke:none;" d="M116 190L116 193L117 193L116 190M177 190L177 194L178 194L177 190z"/>
<path style="fill:#91c442; stroke:none;" d="M334.333 190.667L334.667 191.333L334.333 190.667M110 191L111 192L110 191z"/>
<path style="fill:#9d401f; stroke:none;" d="M186 191L186 194L187 194L186 191z"/>
<path style="fill:#91c442; stroke:none;" d="M260 191L261 192L260 191M340 191L341 192L340 191z"/>
<path style="fill:#9d401f; stroke:none;" d="M261 192L261 197L262 197L261 192z"/>
<path style="fill:#91c442; stroke:none;" d="M270 192L270 195L271 195L270 192z"/>
<path style="fill:#9d401f; stroke:none;" d="M334 192L335 193L334 192M339 192L340 193L339 192z"/>
<path style="fill:#91c442; stroke:none;" d="M111 193L112 194L111 193M117 193L118 194L117 193M339 193L340 194L339 193z"/>
<path style="fill:#9d401f; stroke:none;" d="M117 194L117 197L118 197L117 194z"/>
<path style="fill:#91c442; stroke:none;" d="M186.333 194.667L186.667 195.333L186.333 194.667M112 195L113 196L112 195M176.333 195.667L176.667 196.333L176.333 195.667z"/>
<path style="fill:#9d401f; stroke:none;" d="M270 195L270 204L271 204L270 195z"/>
<path style="fill:#91c442; stroke:none;" d="M333 195L334 196L333 195M338 195L339 196L338 195z"/>
<path style="fill:#9d401f; stroke:none;" d="M333 196L333 199L334 199L333 196M337 196L336 199L337 199L337 196z"/>
<path style="fill:#91c442; stroke:none;" d="M28.3333 197.667L28.6667 198.333L28.3333 197.667z"/>
<path style="fill:#9d401f; stroke:none;" d="M29 200L40 198C36.8066 196.16 29.923 195.693 29 200z"/>
<path style="fill:#91c442; stroke:none;" d="M40 197L40 198L48 198L40 197z"/>
<path style="fill:#9d401f; stroke:none;" d="M176 197L176 200L177 200L176 197M185 197L185 200L186 200L185 197z"/>
<path style="fill:#91c442; stroke:none;" d="M261.333 197.667L261.667 198.333L261.333 197.667M337 197L338 198L337 197M408 197L408 198L423 199L408 197z"/>
<path style="fill:#de272e; stroke:none;" d="M30 199C33.8587 213.108 43.1737 227.005 51.3295 239C79.4731 280.393 123.564 312 175 312L175 311C132.284 310.118 92.5287 280.427 68.2176 247.285C60.6697 236.995 49.3379 223.062 48 210C89.1937 210.027 127.008 226.175 166 236C161.541 227.611 144.632 221.581 136 218.011C110.438 207.439 81.7403 199.71 54 198.985C46.0001 198.776 37.8717 196.673 30 199z"/>
<path style="fill:#9d401f; stroke:none;" d="M48 198L48 199L58 199L48 198z"/>
<path style="fill:#91c442; stroke:none;" d="M58 198L58 199L61 199L58 198z"/>
<path style="fill:#9d401f; stroke:none;" d="M114 198L115 199L114 198z"/>
<path style="fill:#91c442; stroke:none;" d="M118 198L119 199L118 198M392.667 198.333L393.333 198.667L392.667 198.333z"/>
<path style="fill:#9d401f; stroke:none;" d="M394 198L394 199L400 199L394 198z"/>
<path style="fill:#de272e; stroke:none;" d="M282 237C294.284 235.406 306.096 228.8 318 225.294C345.048 217.329 375.695 210 404 210C401.027 223.91 390.65 237.983 382.137 249.086C355.418 283.933 321.391 303.102 279 311C288.642 315.046 303.613 309.251 313 306.438C349.044 295.64 379.244 270.193 399.694 239C405.754 229.757 412.118 220.699 415.995 210.285C417.065 207.411 420.66 203.693 419.342 200.434C418.15 197.486 413.517 198.014 411 198.001C402.422 197.956 393.526 198.515 385 199.508C358.591 202.587 331.061 209.777 307.09 221.326C298.45 225.489 287.849 229.081 282 237z"/>
<path style="fill:#9d401f; stroke:none;" d="M418 198L418 199L420 203L421 203L422 198L418 198M62 199L62 200L68 200L62 199z"/>
<path style="fill:#91c442; stroke:none;" d="M68 199L69 200L68 199z"/>
<path style="fill:#9d401f; stroke:none;" d="M115 199L116 200L115 199M118 199L119 207L120 207L118 199z"/>
<path style="fill:#91c442; stroke:none;" d="M332 199L333 200L332 199z"/>
<path style="fill:#9d401f; stroke:none;" d="M335.333 199.667L335.667 200.333L335.333 199.667z"/>
<path style="fill:#91c442; stroke:none;" d="M382.667 199.333L383.333 199.667L382.667 199.333z"/>
<path style="fill:#9d401f; stroke:none;" d="M384 199L385 200L384 199M387.667 199.333L388.333 199.667L387.667 199.333z"/>
<path style="fill:#91c442; stroke:none;" d="M29 200L30 201L29 200z"/>
<path style="fill:#9d401f; stroke:none;" d="M71 200L71 201L75 201L71 200z"/>
<path style="fill:#91c442; stroke:none;" d="M75 200L76 201L75 200M115 200L116 201L115 200M185.333 200.667L185.667 201.333L185.333 200.667z"/>
<path style="fill:#9d401f; stroke:none;" d="M332 200L331 207L332 207L334 200L332 200z"/>
<path style="fill:#91c442; stroke:none;" d="M375 200L376 201L375 200z"/>
<path style="fill:#9d401f; stroke:none;" d="M376 200L376 201L379 201L376 200M30 201L31 202L30 201M76 201L76 202L80 202L76 201z"/>
<path style="fill:#91c442; stroke:none;" d="M80.6667 201.333L81.3333 201.667L80.6667 201.333z"/>
<path style="fill:#9d401f; stroke:none;" d="M262 201L262 206L263 206L262 201z"/>
<path style="fill:#91c442; stroke:none;" d="M368.667 201.333L369.333 201.667L368.667 201.333z"/>
<path style="fill:#9d401f; stroke:none;" d="M370 201L370 202L375 202L370 201z"/>
<path style="fill:#91c442; stroke:none;" d="M30 202L31 203L30 202z"/>
<path style="fill:#9d401f; stroke:none;" d="M85 202L86 203L85 202z"/>
<path style="fill:#91c442; stroke:none;" d="M86 202L87 203L86 202M116 202L117 203L116 202M119 202L120 203L119 202z"/>
<path style="fill:#9d401f; stroke:none;" d="M184 202L184 208L185 208L184 202z"/>
<path style="fill:#91c442; stroke:none;" d="M364 202L365 203L364 202z"/>
<path style="fill:#9d401f; stroke:none;" d="M365 202L365 203L369 203L365 202M31 203L32 204L31 203M88 203L88 204L91 204L88 203z"/>
<path style="fill:#91c442; stroke:none;" d="M91 203L92 204L91 203M331.333 203.667L331.667 204.333L331.333 203.667M359 203L360 204L359 203z"/>
<path style="fill:#9d401f; stroke:none;" d="M360 203L360 204L363 204L360 203z"/>
<path style="fill:#91c442; stroke:none;" d="M31 204L32 205L31 204z"/>
<path style="fill:#9d401f; stroke:none;" d="M92 204L92 205L95 205L92 204z"/>
<path style="fill:#91c442; stroke:none;" d="M95 204L96 205L95 204M333 204L334 205L333 204M355 204L356 205L355 204z"/>
<path style="fill:#9d401f; stroke:none;" d="M356 204L356 205L359 205L356 204M419 204L418 207L419 207L419 204M97.6667 205.333L98.3333 205.667L97.6667 205.333z"/>
<path style="fill:#91c442; stroke:none;" d="M99 205L100 206L99 205M118 205L119 206L118 205M175 205L175 208L176 208L175 205M271 205L271 222L272 222L271 205M350.667 205.333L351.333 205.667L350.667 205.333z"/>
<path style="fill:#9d401f; stroke:none;" d="M352 205L353 206L352 205z"/>
<path style="fill:#91c442; stroke:none;" d="M419 205L420 206L419 205z"/>
<path style="fill:#9d401f; stroke:none;" d="M32 206L33 207L32 206M101.667 206.333L102.333 206.667L101.667 206.333z"/>
<path style="fill:#91c442; stroke:none;" d="M103 206L104 207L103 206M120.333 206.667L120.667 207.333L120.333 206.667M262 206L262 209L263 209L262 206M346 206L347 207L346 206z"/>
<path style="fill:#9d401f; stroke:none;" d="M347 206L348 207L347 206z"/>
<path style="fill:#91c442; stroke:none;" d="M32 207L33 208L32 207z"/>
<path style="fill:#9d401f; stroke:none;" d="M104 207L104 208L110 209L110 208L104 207z"/>
<path style="fill:#91c442; stroke:none;" d="M107 207L108 208L107 207M330.667 207.333L331.333 207.667L330.667 207.333M343 207L344 208L343 207z"/>
<path style="fill:#9d401f; stroke:none;" d="M344.667 207.333L345.333 207.667L344.667 207.333M417 207L416 211L417 207M33 208L34 209L33 208z"/>
<path style="fill:#91c442; stroke:none;" d="M110 208L111 209L110 208z"/>
<path style="fill:#9d401f; stroke:none;" d="M175 208L175 221L176 221L175 208z"/>
<path style="fill:#91c442; stroke:none;" d="M184 208L184 211L185 211L184 208z"/>
<path style="fill:#9d401f; stroke:none;" d="M263 208L263 240L264 240L263 208M340 208L340 209L343 209L340 208M112 209L113 210L112 209z"/>
<path style="fill:#91c442; stroke:none;" d="M113 209L114 210L113 209M336 209L337 210L336 209z"/>
<path style="fill:#9d401f; stroke:none;" d="M337 209L337 210L340 210L337 209z"/>
<path style="fill:#91c442; stroke:none;" d="M417 209L418 210L417 209z"/>
<path style="fill:#9d401f; stroke:none;" d="M34 210L35 211L34 210z"/>
<path style="fill:#91c442; stroke:none;" d="M48.6667 210.333L49.3333 210.667L48.6667 210.333z"/>
<path style="fill:#9d401f; stroke:none;" d="M50 210L50 211L58 211L50 210M115.667 210.333L116.333 210.667L115.667 210.333z"/>
<path style="fill:#91c442; stroke:none;" d="M333 210L334 211L333 210z"/>
<path style="fill:#9d401f; stroke:none;" d="M334.667 210.333L335.333 210.667L334.667 210.333M385 211L385 212L400 211L385 211z"/>
<path style="fill:#91c442; stroke:none;" d="M400 210L400 211L404 212L400 210z"/>
<path style="fill:#9d401f; stroke:none;" d="M35 211L36 212L35 211z"/>
<path style="fill:#91c442; stroke:none;" d="M57.6667 211.333L58.3333 211.667L57.6667 211.333z"/>
<path style="fill:#9d401f; stroke:none;" d="M59 211L59 212L65 212L59 211M117.667 211.333L118.333 211.667L117.667 211.333z"/>
<path style="fill:#91c442; stroke:none;" d="M119 211L120 212L119 211M330 211L331 212L330 211z"/>
<path style="fill:#9d401f; stroke:none;" d="M331 211L332 212L331 211z"/>
<path style="fill:#91c442; stroke:none;" d="M392 211L393 212L392 211M416 211L417 212L416 211M35 212L36 213L35 212M66.6667 212.333L67.3333 212.667L66.6667 212.333z"/>
<path style="fill:#9d401f; stroke:none;" d="M68 212L68 213L73 213L68 212M120 212L120 213L125 214L125 213L120 212z"/>
<path style="fill:#91c442; stroke:none;" d="M123 212L124 213L123 212M327 212L328 213L327 212z"/>
<path style="fill:#9d401f; stroke:none;" d="M328 212L329 213L328 212M371 213L371 214L384 213L371 213z"/>
<path style="fill:#91c442; stroke:none;" d="M384.667 212.333L385.333 212.667L384.667 212.333z"/>
<path style="fill:#9d401f; stroke:none;" d="M403.333 212.667L403.667 213.333L403.333 212.667M36.3333 213.667L36.6667 214.333L36.3333 213.667z"/>
<path style="fill:#91c442; stroke:none;" d="M48 213L49 214L48 213M72 213L72 214L75 214L72 213z"/>
<path style="fill:#9d401f; stroke:none;" d="M75 213L75 214L80 214L75 213z"/>
<path style="fill:#91c442; stroke:none;" d="M125 213L126 214L125 213M324 213L325 214L324 213z"/>
<path style="fill:#9d401f; stroke:none;" d="M325.667 213.333L326.333 213.667L325.667 213.333z"/>
<path style="fill:#91c442; stroke:none;" d="M377.667 213.333L378.333 213.667L377.667 213.333M415 213L416 214L415 213z"/>
<path style="fill:#9d401f; stroke:none;" d="M48 214L49 215L48 214z"/>
<path style="fill:#91c442; stroke:none;" d="M80.6667 214.333L81.3333 214.667L80.6667 214.333z"/>
<path style="fill:#9d401f; stroke:none;" d="M82 214L82 215L87 215L82 214M127 214L128 215L127 214z"/>
<path style="fill:#91c442; stroke:none;" d="M128 214L129 215L128 214M321 214L322 215L321 214z"/>
<path style="fill:#9d401f; stroke:none;" d="M322.667 214.333L323.333 214.667L322.667 214.333M367 214L367 215L370 215L367 214z"/>
<path style="fill:#91c442; stroke:none;" d="M370.667 214.333L371.333 214.667L370.667 214.333z"/>
<path style="fill:#9d401f; stroke:none;" d="M402 214L403 215L402 214M414 214L415 215L414 214M37 215L38 216L37 215z"/>
<path style="fill:#91c442; stroke:none;" d="M49 215L50 216L49 215M86.6667 215.333L87.3333 215.667L86.6667 215.333z"/>
<path style="fill:#9d401f; stroke:none;" d="M88 215L88 216L91 216L88 215M129.667 215.333L130.333 215.667L129.667 215.333z"/>
<path style="fill:#91c442; stroke:none;" d="M131 215L132 216L131 215M319 215L320 216L319 215z"/>
<path style="fill:#9d401f; stroke:none;" d="M320 215L321 216L320 215M360 215L360 216L364 216L360 215z"/>
<path style="fill:#91c442; stroke:none;" d="M364.667 215.333L365.333 215.667L364.667 215.333z"/>
<path style="fill:#9d401f; stroke:none;" d="M413.333 215.667L413.667 216.333L413.333 215.667z"/>
<path style="fill:#91c442; stroke:none;" d="M37 216L38 217L37 216z"/>
<path style="fill:#9d401f; stroke:none;" d="M49 216L50 217L49 216z"/>
<path style="fill:#91c442; stroke:none;" d="M92 216L93 217L92 216z"/>
<path style="fill:#9d401f; stroke:none;" d="M93 216L93 217L98 217L93 216M132 216L133 217L132 216z"/>
<path style="fill:#91c442; stroke:none;" d="M133 216L134 217L133 216M316 216L317 217L316 216z"/>
<path style="fill:#9d401f; stroke:none;" d="M317 216L318 217L317 216M352 217L352 218L358 217L352 217z"/>
<path style="fill:#91c442; stroke:none;" d="M358.667 216.333L359.333 216.667L358.667 216.333z"/>
<path style="fill:#9d401f; stroke:none;" d="M401.333 216.667L401.667 217.333L401.333 216.667z"/>
<path style="fill:#91c442; stroke:none;" d="M50 217L51 218L50 217M97.6667 217.333L98.3333 217.667L97.6667 217.333z"/>
<path style="fill:#9d401f; stroke:none;" d="M99 217L99 218L103 218L99 217M134.667 217.333L135.333 217.667L134.667 217.333z"/>
<path style="fill:#91c442; stroke:none;" d="M314 217L315 218L314 217z"/>
<path style="fill:#9d401f; stroke:none;" d="M315 217L316 218L315 217z"/>
<path style="fill:#91c442; stroke:none;" d="M353.667 217.333L354.333 217.667L353.667 217.333z"/>
<path style="fill:#9d401f; stroke:none;" d="M412.333 217.667L412.667 218.333L412.333 217.667M38 218L39 219L38 218M50 218L51 219L50 218z"/>
<path style="fill:#91c442; stroke:none;" d="M102.667 218.333L103.333 218.667L102.667 218.333z"/>
<path style="fill:#9d401f; stroke:none;" d="M104 218L104 219L107 219L104 218M137 218L138 219L137 218z"/>
<path style="fill:#91c442; stroke:none;" d="M138 218L139 219L138 218M311 218L312 219L311 218z"/>
<path style="fill:#9d401f; stroke:none;" d="M312.667 218.333L313.333 218.667L312.667 218.333M344 218L344 219L348 219L344 218z"/>
<path style="fill:#91c442; stroke:none;" d="M348 218L349 219L348 218z"/>
<path style="fill:#9d401f; stroke:none;" d="M400 218L398 223L400 218M39 219L40 222L41 222L39 219z"/>
<path style="fill:#91c442; stroke:none;" d="M51 219L52 220L51 219M107.667 219.333L108.333 219.667L107.667 219.333z"/>
<path style="fill:#9d401f; stroke:none;" d="M109 219L109 220L112 220L109 219M139.667 219.333L140.333 219.667L139.667 219.333z"/>
<path style="fill:#91c442; stroke:none;" d="M309 219L310 220L309 219z"/>
<path style="fill:#9d401f; stroke:none;" d="M310 219L311 220L310 219M342.667 219.333L343.333 219.667L342.667 219.333z"/>
<path style="fill:#91c442; stroke:none;" d="M39 220L40 221L39 220z"/>
<path style="fill:#9d401f; stroke:none;" d="M51 220L52 221L51 220z"/>
<path style="fill:#91c442; stroke:none;" d="M112.667 220.333L113.333 220.667L112.667 220.333z"/>
<path style="fill:#9d401f; stroke:none;" d="M114.667 220.333L115.333 220.667L114.667 220.333M141.667 220.333L142.333 220.667L141.667 220.333z"/>
<path style="fill:#91c442; stroke:none;" d="M307 220L308 221L307 220z"/>
<path style="fill:#9d401f; stroke:none;" d="M308 220L309 221L308 220M336 220L336 221L339 221L336 220z"/>
<path style="fill:#91c442; stroke:none;" d="M339 220L340 221L339 220z"/>
<path style="fill:#9d401f; stroke:none;" d="M52 221L53 222L52 221z"/>
<path style="fill:#91c442; stroke:none;" d="M117 221L118 222L117 221z"/>
<path style="fill:#9d401f; stroke:none;" d="M144 221L153 226L153 225L144 221z"/>
<path style="fill:#91c442; stroke:none;" d="M145 221L146 222L145 221M175 221L175 224L176 224L175 221M305 221L306 222L305 221z"/>
<path style="fill:#9d401f; stroke:none;" d="M306.667 221.333L307.333 221.667L306.667 221.333M333.667 221.333L334.333 221.667L333.667 221.333z"/>
<path style="fill:#91c442; stroke:none;" d="M335 221L336 222L335 221M40 222L41 223L40 222M121 222L122 223L121 222z"/>
<path style="fill:#9d401f; stroke:none;" d="M122.667 222.333L123.333 222.667L122.667 222.333z"/>
<path style="fill:#91c442; stroke:none;" d="M147 222L148 223L147 222M303 222L304 223L303 222z"/>
<path style="fill:#9d401f; stroke:none;" d="M327 222L327 223L330 223L327 222z"/>
<path style="fill:#91c442; stroke:none;" d="M330 222L331 223L330 222M410 222L411 223L410 222z"/>
<path style="fill:#9d401f; stroke:none;" d="M41 223L42 224L41 223M53.3333 223.667L53.6667 224.333L53.3333 223.667z"/>
<path style="fill:#91c442; stroke:none;" d="M125 223L126 224L125 223z"/>
<path style="fill:#9d401f; stroke:none;" d="M126.667 223.333L127.333 223.667L126.667 223.333z"/>
<path style="fill:#91c442; stroke:none;" d="M301 223L302 224L301 223z"/>
<path style="fill:#9d401f; stroke:none;" d="M302.667 223.333L303.333 223.667L302.667 223.333M324.667 223.333L325.333 223.667L324.667 223.333z"/>
<path style="fill:#91c442; stroke:none;" d="M326.667 223.333L327.333 223.667L326.667 223.333z"/>
<path style="fill:#9d401f; stroke:none;" d="M409 223L410 224L409 223z"/>
<path style="fill:#91c442; stroke:none;" d="M54 224L56 227L54 224M128 224L129 225L128 224z"/>
<path style="fill:#9d401f; stroke:none;" d="M130.667 224.333L131.333 224.667L130.667 224.333M270 224L270 231L271 231L270 224z"/>
<path style="fill:#91c442; stroke:none;" d="M299 224L300 225L299 224z"/>
<path style="fill:#9d401f; stroke:none;" d="M300 224L301 225L300 224M320 224L320 225L323 225L320 224z"/>
<path style="fill:#91c442; stroke:none;" d="M323 224L324 225L323 224z"/>
<path style="fill:#9d401f; stroke:none;" d="M397 224L396 228L397 228L397 224z"/>
<path style="fill:#91c442; stroke:none;" d="M409 224L410 225L409 224z"/>
<path style="fill:#9d401f; stroke:none;" d="M42 225L43 226L42 225z"/>
<path style="fill:#91c442; stroke:none;" d="M132 225L133 226L132 225z"/>
<path style="fill:#9d401f; stroke:none;" d="M133 225L133 226L136 226L133 225M183 225L183 235L184 235L183 225z"/>
<path style="fill:#91c442; stroke:none;" d="M297 225L298 226L297 225z"/>
<path style="fill:#9d401f; stroke:none;" d="M298 225L299 226L298 225M317.667 225.333L318.333 225.667L317.667 225.333z"/>
<path style="fill:#91c442; stroke:none;" d="M319 225L320 226L319 225M396 225L397 226L396 225z"/>
<path style="fill:#9d401f; stroke:none;" d="M408 225L409 226L408 225M54 226L55 227L54 226z"/>
<path style="fill:#91c442; stroke:none;" d="M136 226L137 227L136 226z"/>
<path style="fill:#9d401f; stroke:none;" d="M137 226L138 227L137 226M153 226L154 227L153 226z"/>
<path style="fill:#91c442; stroke:none;" d="M154 226L155 227L154 226z"/>
<path style="fill:#9d401f; stroke:none;" d="M176 226L176 229L177 229L176 226z"/>
<path style="fill:#91c442; stroke:none;" d="M295 226L296 227L295 226z"/>
<path style="fill:#9d401f; stroke:none;" d="M313 226L313 227L316 227L313 226z"/>
<path style="fill:#91c442; stroke:none;" d="M43 227L44 228L43 227z"/>
<path style="fill:#9d401f; stroke:none;" d="M55 227L56 228L55 227z"/>
<path style="fill:#91c442; stroke:none;" d="M139 227L140 228L139 227z"/>
<path style="fill:#9d401f; stroke:none;" d="M140.667 227.333L141.333 227.667L140.667 227.333M155 227L158 229L158 228L155 227z"/>
<path style="fill:#91c442; stroke:none;" d="M156 227L157 228L156 227M293 227L294 228L293 227z"/>
<path style="fill:#9d401f; stroke:none;" d="M294 227L295 228L294 227M311 227L312 228L311 227z"/>
<path style="fill:#91c442; stroke:none;" d="M312 227L313 228L312 227z"/>
<path style="fill:#9d401f; stroke:none;" d="M406.333 227.667L406.667 228.333L406.333 227.667z"/>
<path style="fill:#91c442; stroke:none;" d="M407 227L408 228L407 227z"/>
<path style="fill:#9d401f; stroke:none;" d="M44 228L45 231L46 231L44 228z"/>
<path style="fill:#91c442; stroke:none;" d="M56 228L57 229L56 228M142 228L143 229L142 228z"/>
<path style="fill:#9d401f; stroke:none;" d="M143.667 228.333L144.333 228.667L143.667 228.333M292 228L293 229L292 228M307.667 228.333L308.333 228.667L307.667 228.333z"/>
<path style="fill:#91c442; stroke:none;" d="M309 228L310 229L309 228z"/>
<path style="fill:#9d401f; stroke:none;" d="M395 228L396 229L395 228z"/>
<path style="fill:#91c442; stroke:none;" d="M44 229L45 230L44 229z"/>
<path style="fill:#9d401f; stroke:none;" d="M56 229L57 230L56 229M146.667 229.333L147.333 229.667L146.667 229.333M159 229L163 232L163 231L159 229z"/>
<path style="fill:#91c442; stroke:none;" d="M160 229L161 230L160 229M290 229L291 230L290 229z"/>
<path style="fill:#9d401f; stroke:none;" d="M291 229L292 230L291 229M304.667 229.333L305.333 229.667L304.667 229.333z"/>
<path style="fill:#91c442; stroke:none;" d="M306 229L307 230L306 229M394 229L395 230L394 229M406 229L407 230L406 229M57 230L58 231L57 230M149 230L150 231L149 230z"/>
<path style="fill:#9d401f; stroke:none;" d="M150.667 230.333L151.333 230.667L150.667 230.333z"/>
<path style="fill:#91c442; stroke:none;" d="M161 230L162 231L161 230M288 230L289 231L288 230z"/>
<path style="fill:#9d401f; stroke:none;" d="M301.667 230.333L302.333 230.667L301.667 230.333z"/>
<path style="fill:#91c442; stroke:none;" d="M303 230L304 231L303 230z"/>
<path style="fill:#9d401f; stroke:none;" d="M394 230L395 231L394 230M405 230L406 231L405 230M46 231L47 232L46 231M57 231L58 232L57 231M152 231L152 232L160 234L160 233L152 231z"/>
<path style="fill:#91c442; stroke:none;" d="M163 231L164 232L163 231M270 231L270 234L271 234L270 231M287 231L288 232L287 231M300 231L301 232L300 231z"/>
<path style="fill:#9d401f; stroke:none;" d="M393 231L394 232L393 231z"/>
<path style="fill:#91c442; stroke:none;" d="M405 231L406 232L405 231M46 232L47 233L46 232z"/>
<path style="fill:#9d401f; stroke:none;" d="M58.3333 232.667L58.6667 233.333L58.3333 232.667z"/>
<path style="fill:#91c442; stroke:none;" d="M154 232L155 233L154 232z"/>
<path style="fill:#9d401f; stroke:none;" d="M164 232L165 233L164 232M176 232L177 233L176 232z"/>
<path style="fill:#91c442; stroke:none;" d="M285 232L286 233L285 232z"/>
<path style="fill:#9d401f; stroke:none;" d="M296.667 232.333L297.333 232.667L296.667 232.333z"/>
<path style="fill:#91c442; stroke:none;" d="M392 232L393 233L392 232z"/>
<path style="fill:#9d401f; stroke:none;" d="M404 232L405 233L404 232M47 233L48 234L47 233z"/>
<path style="fill:#91c442; stroke:none;" d="M157 233L158 234L157 233z"/>
<path style="fill:#9d401f; stroke:none;" d="M165 233C166.712 236.913 168.836 238.237 173 239L173 238L165 233z"/>
<path style="fill:#91c442; stroke:none;" d="M166 233L167 234L166 233M176.333 233.667L176.667 234.333L176.333 233.667z"/>
<path style="fill:#9d401f; stroke:none;" d="M284 233L285 234L284 233M294 233L295 234L294 233z"/>
<path style="fill:#91c442; stroke:none;" d="M295 233L296 234L295 233z"/>
<path style="fill:#9d401f; stroke:none;" d="M392 233L393 234L392 233M403 233L402 236L403 236L403 233M59 234L60 235L59 234M160 234L161 235L160 234z"/>
<path style="fill:#91c442; stroke:none;" d="M282 234L283 235L282 234z"/>
<path style="fill:#9d401f; stroke:none;" d="M283 234L284 235L283 234M291 234L292 235L291 234z"/>
<path style="fill:#91c442; stroke:none;" d="M292 234L293 235L292 234M391 234L392 235L391 234M403 234L404 235L403 234z"/>
<path style="fill:#9d401f; stroke:none;" d="M48 235L49 236L48 235z"/>
<path style="fill:#91c442; stroke:none;" d="M60 235L61 236L60 235M162 235L163 236L162 235z"/>
<path style="fill:#9d401f; stroke:none;" d="M163 235L164 236L163 235z"/>
<path style="fill:#91c442; stroke:none;" d="M169 235L170 236L169 235z"/>
<path style="fill:#9d401f; stroke:none;" d="M177 235L177 240L178 240L177 235M274 242L285 238L285 237L283 235L274 242M391 235L392 236L391 235M49 236L51 240L52 240L49 236M60 236L61 237L60 236z"/>
<path style="fill:#91c442; stroke:none;" d="M165 236L166 237L165 236M170 236L171 237L170 236z"/>
<path style="fill:#9d401f; stroke:none;" d="M269 236L270 237L269 236z"/>
<path style="fill:#91c442; stroke:none;" d="M279 236L280 237L279 236z"/>
<path style="fill:#9d401f; stroke:none;" d="M285.667 236.333L286.333 236.667L285.667 236.333z"/>
<path style="fill:#91c442; stroke:none;" d="M287 236L288 237L287 236z"/>
<path style="fill:#9d401f; stroke:none;" d="M390 236L387 242L390 236M401 236L400 239L401 239L401 236z"/>
<path style="fill:#91c442; stroke:none;" d="M49 237L50 238L49 237z"/>
<path style="fill:#9d401f; stroke:none;" d="M61 237L62 238L61 237z"/>
<path style="fill:#91c442; stroke:none;" d="M167 237L168 238L167 237M278 237L279 238L278 237M389 237L390 238L389 237M401 237L402 238L401 237M50 238L51 239L50 238M62 238L63 239L62 238M282 238L283 239L282 238M388.333 238.667L388.667 239.333L388.333 238.667z"/>
<path style="fill:#9d401f; stroke:none;" d="M62 239L63 240L62 239z"/>
<path style="fill:#91c442; stroke:none;" d="M184.333 239.667L184.667 240.333L184.333 239.667M269 239L270 240L269 239M275 239L276 240L275 239M280 239L281 240L280 239z"/>
<path style="fill:#9d401f; stroke:none;" d="M399 239L398 242L399 242L399 239M63 240L64 241L63 240z"/>
<path style="fill:#91c442; stroke:none;" d="M177 240L178 241L177 240M262.333 240.667L262.667 241.333L262.333 240.667z"/>
<path style="fill:#9d401f; stroke:none;" d="M268 240L268 244L269 244L268 240z"/>
<path style="fill:#91c442; stroke:none;" d="M274 240L275 241L274 240M278 240L279 241L278 240M387 240L388 241L387 240M399 240L400 241L399 240M52 241L53 242L52 241M64 241L65 242L64 241z"/>
<path style="fill:#9d401f; stroke:none;" d="M184 241L184 245L185 245L184 241z"/>
<path style="fill:#91c442; stroke:none;" d="M273 241L274 242L273 241M276 241L277 242L276 241z"/>
<path style="fill:#9d401f; stroke:none;" d="M53 242L54 243L53 242M64 242L65 243L64 242M262.333 242.667L262.667 243.333L262.333 242.667M386 242L387 243L386 242M397 242L398 243L397 242M54 243L55 246L56 246L54 243M65 243L66 244L65 243M178.333 243.667L178.667 244.333L178.333 243.667z"/>
<path style="fill:#91c442; stroke:none;" d="M385 243L386 244L385 243M54 244L55 245L54 244M66 244L68 246L66 244M268 244L269 245L268 244z"/>
<path style="fill:#9d401f; stroke:none;" d="M385 244L384 246L386 246L385 244z"/>
<path style="fill:#91c442; stroke:none;" d="M396 244L397 245L396 244z"/>
<path style="fill:#9d401f; stroke:none;" d="M66 245L67 246L66 245z"/>
<path style="fill:#91c442; stroke:none;" d="M178 245L179 246L178 245M185.333 245.667L185.667 246.333L185.333 245.667z"/>
<path style="fill:#9d401f; stroke:none;" d="M395 245L396 246L395 245M56 246L57 247L56 246M179 246L179 249L180 249L179 246M267 246L266 252L267 252L267 246z"/>
<path style="fill:#91c442; stroke:none;" d="M383 246L382 248L383 246z"/>
<path style="fill:#9d401f; stroke:none;" d="M394 246L393 248L394 246z"/>
<path style="fill:#91c442; stroke:none;" d="M56 247L57 248L56 247z"/>
<path style="fill:#9d401f; stroke:none;" d="M68 247L69 248L68 247M185.333 247.667L185.667 248.333L185.333 247.667z"/>
<path style="fill:#91c442; stroke:none;" d="M261 247L262 248L261 247z"/>
<path style="fill:#9d401f; stroke:none;" d="M383 247L384 248L383 247z"/>
<path style="fill:#91c442; stroke:none;" d="M394 247L395 248L394 247M57 248L58 249L57 248M69 248L71 250L69 248z"/>
<path style="fill:#9d401f; stroke:none;" d="M261.333 248.667L261.667 249.333L261.333 248.667M382 248L383 249L382 248z"/>
<path style="fill:#91c442; stroke:none;" d="M393 248L394 249L393 248z"/>
<path style="fill:#9d401f; stroke:none;" d="M58 249L59 250L58 249M69 249L70 250L69 249z"/>
<path style="fill:#91c442; stroke:none;" d="M179 249L180 250L179 249M267 249L268 250L267 249z"/>
<path style="fill:#9d401f; stroke:none;" d="M381 249L382 250L381 249M392 249L393 250L392 249M59 250L60 251L59 250M70 250L71 251L70 250M380 250L379 253L380 250M391 250L392 251L391 250M60 251L62 255L63 255L60 251M71 251L72 252L71 251M180 251L181 252L180 251M186 251L186 254L187 254L186 251z"/>
<path style="fill:#91c442; stroke:none;" d="M379 251L380 252L379 251M391 251L392 252L391 251M60 252L61 253L60 252M72 252L74 254L72 252M180 252L181 253L180 252M260 252L261 253L260 252M266 252L267 253L266 252M390 252L391 253L390 252M61 253L62 254L61 253z"/>
<path style="fill:#9d401f; stroke:none;" d="M72 253L73 254L72 253M181.333 253.667L181.667 254.333L181.333 253.667M260.333 253.667L260.667 254.333L260.333 253.667M378 253L377 255L379 255L378 253M389 253L390 254L389 253z"/>
<path style="fill:#91c442; stroke:none;" d="M74 254L75 255L74 254M187 254L188 255L187 254z"/>
<path style="fill:#9d401f; stroke:none;" d="M388 254L389 255L388 254M63 255L64 256L63 255M74 255L80 262L74 255z"/>
<path style="fill:#91c442; stroke:none;" d="M181 255L182 256L181 255z"/>
<path style="fill:#9d401f; stroke:none;" d="M187.333 255.667L187.667 256.333L187.333 255.667M265 255L266 256L265 255z"/>
<path style="fill:#91c442; stroke:none;" d="M376 255L377 256L376 255z"/>
<path style="fill:#9d401f; stroke:none;" d="M182.333 256.667L182.667 257.333L182.333 256.667M259 256L259 259L260 259L259 256M264.333 256.667L264.667 257.333L264.333 256.667z"/>
<path style="fill:#91c442; stroke:none;" d="M375 256L374 258L375 256M387 256L388 257L387 256M64 257L65 258L64 257M188 257L189 258L188 257z"/>
<path style="fill:#9d401f; stroke:none;" d="M375 257L376 258L375 257M385 257L386 258L385 257z"/>
<path style="fill:#91c442; stroke:none;" d="M386 257L387 258L386 257M65 258L67 260L65 258z"/>
<path style="fill:#9d401f; stroke:none;" d="M66 258L67 259L66 258z"/>
<path style="fill:#91c442; stroke:none;" d="M77 258L78 259L77 258M182 258L183 259L182 258z"/>
<path style="fill:#9d401f; stroke:none;" d="M188.333 258.667L188.667 259.333L188.333 258.667z"/>
<path style="fill:#91c442; stroke:none;" d="M264 258L265 259L264 258M385 258L386 259L385 258M78 259L79 260L78 259z"/>
<path style="fill:#9d401f; stroke:none;" d="M183 259L185 264L186 264L183 259z"/>
<path style="fill:#91c442; stroke:none;" d="M258 259L259 260L258 259z"/>
<path style="fill:#9d401f; stroke:none;" d="M373 259L374 260L373 259M384 259L385 260L384 259M67 260L68 261L67 260z"/>
<path style="fill:#91c442; stroke:none;" d="M79 260L80 261L79 260M183 260L184 261L183 260M189 260L190 261L189 260z"/>
<path style="fill:#9d401f; stroke:none;" d="M258 260L259 261L258 260M263 260L264 261L263 260M372 260L373 261L372 260M383 260L384 261L383 260M68 261L69 262L68 261M189 261L190 262L189 261M262.333 261.667L262.667 262.333L262.333 261.667M371 261L372 262L371 261M382 261L380 264L382 261M69 262L70 263L69 262M80 262L80 264L82 264L80 262z"/>
<path style="fill:#91c442; stroke:none;" d="M81 262L82 263L81 262M184 262L185 263L184 262M190 262L191 263L190 262M257 262L258 263L257 262z"/>
<path style="fill:#9d401f; stroke:none;" d="M370 262L371 263L370 262z"/>
<path style="fill:#91c442; stroke:none;" d="M382 262L383 263L382 262z"/>
<path style="fill:#9d401f; stroke:none;" d="M70 263L71 264L70 263M190 263L191 267L192 267L190 263M257 263L256 267L257 267L257 263z"/>
<path style="fill:#91c442; stroke:none;" d="M262 263L263 264L262 263z"/>
<path style="fill:#9d401f; stroke:none;" d="M369 263L370 264L369 263z"/>
<path style="fill:#91c442; stroke:none;" d="M381 263L382 264L381 263z"/>
<path style="fill:#9d401f; stroke:none;" d="M71 264L72 265L71 264M82 264L83 265L82 264z"/>
<path style="fill:#91c442; stroke:none;" d="M191 264L192 265L191 264M256 264L257 265L256 264z"/>
<path style="fill:#9d401f; stroke:none;" d="M261 264L262 265L261 264M368 264L369 265L368 264M379 264L380 265L379 264M72 265L73 266L72 265M83 265L84 266L83 265z"/>
<path style="fill:#91c442; stroke:none;" d="M261 265L262 266L261 265M367 265L365 268L367 265z"/>
<path style="fill:#9d401f; stroke:none;" d="M378 265L376 268L378 265M73 266L74 267L73 266M84 266L85 267L84 266M260 266L259 269L260 269L260 266M367 266L368 267L367 266z"/>
<path style="fill:#91c442; stroke:none;" d="M378 266L379 267L378 266z"/>
<path style="fill:#9d401f; stroke:none;" d="M85 267L86 268L85 267M187 267L189 271L190 271L187 267M192 267L195 274L196 274L192 267M255 267L254 271L255 271L255 267z"/>
<path style="fill:#91c442; stroke:none;" d="M260 267L261 268L260 267z"/>
<path style="fill:#9d401f; stroke:none;" d="M366 267L367 268L366 267z"/>
<path style="fill:#91c442; stroke:none;" d="M377 267L378 268L377 267z"/>
<path style="fill:#9d401f; stroke:none;" d="M75 268L76 269L75 268M86 268L87 269L86 268z"/>
<path style="fill:#91c442; stroke:none;" d="M193 268L194 269L193 268M254 268L255 269L254 268z"/>
<path style="fill:#9d401f; stroke:none;" d="M364.667 268.333L365.333 268.667L364.667 268.333M375 268L376 269L375 268M76 269L77 270L76 269M87 269L88 270L87 269z"/>
<path style="fill:#91c442; stroke:none;" d="M188 269L189 270L188 269z"/>
<path style="fill:#9d401f; stroke:none;" d="M258.333 269.667L258.667 270.333L258.333 269.667M363 269L361 272L363 269M374 269L375 270L374 269M77 270L78 271L77 270M88 270L90 272L88 270z"/>
<path style="fill:#91c442; stroke:none;" d="M89 270L90 271L89 270M194 270L195 271L194 270z"/>
<path style="fill:#9d401f; stroke:none;" d="M373 270L374 271L373 270M78 271L79 272L78 271z"/>
<path style="fill:#91c442; stroke:none;" d="M253 271L254 272L253 271z"/>
<path style="fill:#9d401f; stroke:none;" d="M372 271L373 272L372 271M79 272L80 273L79 272M90 272L91 273L90 272z"/>
<path style="fill:#91c442; stroke:none;" d="M190 272L192 274L190 272z"/>
<path style="fill:#9d401f; stroke:none;" d="M191 272L192 273L191 272M253 272L254 273L253 272M256.333 272.667L256.667 273.333L256.333 272.667M360 272L361 273L360 272M371 272L372 273L371 272M80 273L81 274L80 273M91 273L92 274L91 273M252.333 273.667L252.667 274.333L252.333 273.667M359 273L360 274L359 273M369 273L369 275L371 273L369 273M81.6667 274.333L82.3333 274.667L81.6667 274.333M92 274L94 276L92 274z"/>
<path style="fill:#91c442; stroke:none;" d="M93 274L94 275L93 274z"/>
<path style="fill:#9d401f; stroke:none;" d="M192 274L193 275L192 274M196 274L199 278L196 274M358 274L359 275L358 274z"/>
<path style="fill:#91c442; stroke:none;" d="M82 275L83 276L82 275M94 275L95 276L94 275z"/>
<path style="fill:#9d401f; stroke:none;" d="M193 275C197.661 283.064 205.278 289.892 213 295L200 280L201 282L200 282L193 275M251 275L240 293L255 276L251 275z"/>
<path style="fill:#91c442; stroke:none;" d="M255 275L256 276L255 275M356 275L357 276L356 275z"/>
<path style="fill:#9d401f; stroke:none;" d="M357 275L358 276L357 275M368 275L369 276L368 275z"/>
<path style="fill:#91c442; stroke:none;" d="M83 276L84 277L83 276M193 276L194 277L193 276M198 276L199 277L198 276M250 276L251 277L250 276M355 276L356 277L355 276z"/>
<path style="fill:#9d401f; stroke:none;" d="M367 276L368 277L367 276z"/>
<path style="fill:#91c442; stroke:none;" d="M84 277L85 278L84 277z"/>
<path style="fill:#9d401f; stroke:none;" d="M96 277L99 280L96 277z"/>
<path style="fill:#91c442; stroke:none;" d="M97 277L98 278L97 277M194 277C186.636 280.93 175.304 279.366 167 280.17C149.638 281.85 130.586 283.374 114 289C138.282 312.236 176.445 310 207 310L207 311C192.289 311.304 177.85 314.249 163 312.83C140.374 310.668 121.46 300.834 102 290C102 293.47 95.9552 293.976 93 295.167C85.7303 298.095 70.7211 304.597 74.3333 315C76.7705 322.019 85.7617 325.821 92 328.333C107.963 334.763 124.323 337.091 141 340.333C190.633 349.984 244.023 346.859 294 342C316.2 339.842 343.467 336.332 363 324.667C378.555 315.377 372.256 302.971 358 296.833C354.02 295.12 348.478 291.841 344 293.333C329.662 298.113 317.207 306.865 302 310.667C283.532 315.284 265.449 311.486 247 311L247 310C270.79 310.066 292.357 310.844 315 301.597C321.482 298.95 332.462 295.235 336 289L289 281.17L253 278L240 293L248 278L200 278L213 295L194 277z"/>
<path style="fill:#9d401f; stroke:none;" d="M354 277L355 278L354 277M364 277L364 279L366 277L364 277z"/>
<path style="fill:#91c442; stroke:none;" d="M98 278L99 279L98 278z"/>
<path style="fill:#fefefd; stroke:none;" d="M194 278L195 279L194 278z"/>
<path style="fill:#9d401f; stroke:none;" d="M353 278L354 279L353 278M87 279L88 280L87 279z"/>
<path style="fill:#91c442; stroke:none;" d="M99 279L100 280L99 279z"/>
<path style="fill:#9d401f; stroke:none;" d="M352 279L353 280L352 279M363 279L364 280L363 279M88 280L89 281L88 280M100 280L101 281L100 280z"/>
<path style="fill:#de272e; stroke:none;" d="M249 280L250 281L249 280z"/>
<path style="fill:#91c442; stroke:none;" d="M350 280L351 281L350 280z"/>
<path style="fill:#9d401f; stroke:none;" d="M362 280L363 281L362 280z"/>
<path style="fill:#91c442; stroke:none;" d="M89 281L90 282L89 281z"/>
<path style="fill:#9d401f; stroke:none;" d="M90 281L91 282L90 281M101 281L102 282L101 281M349 281L350 282L349 281z"/>
<path style="fill:#91c442; stroke:none;" d="M361 281L362 282L361 281z"/>
<path style="fill:#9d401f; stroke:none;" d="M91 282L92 283L91 282M102 282L105 284L105 283L102 282z"/>
<path style="fill:#91c442; stroke:none;" d="M103 282L104 283L103 282z"/>
<path style="fill:#9d401f; stroke:none;" d="M348 282L349 283L348 282z"/>
<path style="fill:#91c442; stroke:none;" d="M360 282L361 283L360 282z"/>
<path style="fill:#9d401f; stroke:none;" d="M92 283L92 284L95 285L92 283z"/>
<path style="fill:#91c442; stroke:none;" d="M346 283L347 284L346 283z"/>
<path style="fill:#9d401f; stroke:none;" d="M347 283L348 284L347 283M358 283L359 284L358 283z"/>
<path style="fill:#91c442; stroke:none;" d="M93 284L94 285L93 284z"/>
<path style="fill:#9d401f; stroke:none;" d="M105 284L108 286L108 285L105 284z"/>
<path style="fill:#91c442; stroke:none;" d="M106 284L107 285L106 284z"/>
<path style="fill:#9d401f; stroke:none;" d="M345.667 284.333L346.333 284.667L345.667 284.333z"/>
<path style="fill:#91c442; stroke:none;" d="M357 284L358 285L357 284z"/>
<path style="fill:#9d401f; stroke:none;" d="M95 285L96 286L95 285z"/>
<path style="fill:#91c442; stroke:none;" d="M343 285L344 286L343 285z"/>
<path style="fill:#9d401f; stroke:none;" d="M344 285L345 286L344 285M355 285L356 286L355 285z"/>
<path style="fill:#91c442; stroke:none;" d="M356 285L357 286L356 285M96 286L97 287L96 286z"/>
<path style="fill:#9d401f; stroke:none;" d="M97 286L98 287L97 286M108 286L111 288L111 287L108 286z"/>
<path style="fill:#91c442; stroke:none;" d="M109 286L110 287L109 286z"/>
<path style="fill:#9d401f; stroke:none;" d="M335 291L335 292L344 287L335 291M354 286L355 287L354 286M98 287L99 288L98 287z"/>
<path style="fill:#91c442; stroke:none;" d="M340 287L341 288L340 287M353 287L354 288L353 287z"/>
<path style="fill:#9d401f; stroke:none;" d="M99 288L100 289L99 288z"/>
<path style="fill:#91c442; stroke:none;" d="M112 288L113 289L112 288z"/>
<path style="fill:#9d401f; stroke:none;" d="M351 288L352 289L351 288z"/>
<path style="fill:#91c442; stroke:none;" d="M100 289L101 290L100 289z"/>
<path style="fill:#9d401f; stroke:none;" d="M101 289L102 290L101 289M112 289L112 290L117 292L117 291L112 289z"/>
<path style="fill:#91c442; stroke:none;" d="M337 289L338 290L337 289z"/>
<path style="fill:#9d401f; stroke:none;" d="M349 289L350 290L349 289z"/>
<path style="fill:#91c442; stroke:none;" d="M350 289L351 290L350 289z"/>
<path style="fill:#9d401f; stroke:none;" d="M103 290L104 291L103 290M347 290L346 292L347 290z"/>
<path style="fill:#91c442; stroke:none;" d="M348 290L349 291L348 290z"/>
<path style="fill:#9d401f; stroke:none;" d="M104 291L105 292L104 291z"/>
<path style="fill:#91c442; stroke:none;" d="M347 291L348 292L347 291z"/>
<path style="fill:#9d401f; stroke:none;" d="M106 292L107 293L106 292M117 292L120 294L117 292M333.667 292.333L334.333 292.667L333.667 292.333M344.667 292.333L345.333 292.667L344.667 292.333M107.667 293.333L108.333 293.667L107.667 293.333M331.667 293.333L332.333 293.667L331.667 293.333M342.667 293.333L343.333 293.667L342.667 293.333M109 294L112 296L109 294M120.667 294.333L121.333 294.667L120.667 294.333M238 294L239 295L238 294M329.667 294.333L330.333 294.667L329.667 294.333M339 296L342 294L339 296M122.667 295.333L123.333 295.667L122.667 295.333M327.667 295.333L328.333 295.667L327.667 295.333M112 296L112 297L117 298L117 297L112 296M124.667 296.333L125.333 296.667L124.667 296.333M325 296L326 297L325 296M337.667 296.333L338.333 296.667L337.667 296.333M126.667 297.333L127.333 297.667L126.667 297.333M320 299L320 300L325 298L320 299M335.667 297.333L336.333 297.667L335.667 297.333M117 298L120 300L117 298M128.667 298.333L129.333 298.667L128.667 298.333M331 299L331 300L335 299L331 299M130.667 299.333L131.333 299.667L130.667 299.333M120 300L120 301L125 302L125 301L120 300M132.667 300.333L133.333 300.667L132.667 300.333M317 300L317 301L320 301L317 300M324 302L324 303L331 301L324 302M134 301L134 302L137 302L134 301M315.667 301.333L316.333 301.667L315.667 301.333M125.667 302.333L126.333 302.667L125.667 302.333M137.667 302.333L138.333 302.667L137.667 302.333M310 303L310 304L315 303L310 303M127 303L127 304L132 305L132 304L127 303M139 303L139 304L144 305L144 304L139 303M322.667 303.333L323.333 303.667L322.667 303.333M307 304L307 305L310 305L307 304M320.667 304.333L321.333 304.667L320.667 304.333M132.667 305.333L133.333 305.667L132.667 305.333M144 305L144 306L148 306L144 305M304 305L304 306L307 306L304 305M316 305L316 306L319 306L316 305M135 306L135 307L140 308L140 307L135 306M148 306L148 307L151 307L148 306M301 306L301 307L304 307L301 306M307 308L307 309L316 307L307 308M152 307L152 308L155 308L152 307M296 307L296 308L301 308L296 307M141 308L141 309L144 309L141 308M156 308L156 309L166 310L156 308M291 308L291 309L296 309L291 308M144 309L144 310L148 310L144 309M285 309L285 310L289 310L285 309M304.667 309.333L305.333 309.667L304.667 309.333M148 310L148 311L152 311L148 310M168 310L168 311L175 311L175 312L160 312L160 313L207 311C197.439 306.988 178.633 310 168 310M247 310L247 311L303 311L303 310L279 312L279 311L282 311L247 310M153 311L153 312L160 312L153 311z"/>
<path style="fill:#69cbed; stroke:none;" d="M120 352L120 353C166.334 366.404 212.105 369.446 260 366.09C283.802 364.421 310.168 361.21 332 351L304 352.83L261 354.985L120 352M144 371L144 372C184.297 383.662 223.184 387.96 265 382.13C275.31 380.693 298.721 379.202 305 370C251.599 374.898 197.49 371 144 371z"/>
<path style="fill:#91c442; stroke:none;" d="M305 370L306 371L305 370z"/>
</svg>
